PathFileType	4	(X/Y/Z)	./resultDataOpenSim/trcMotMarkerGrf/sub09/qtm-03-03.trc
DataRate	CameraRate	NumFrames	NumMarkers	Units	OrigDataRate	OrigDataStartFrame	OrigNumFrames
250.000000	250.000000	6	24	m	250.000000	60	478
Frame#	Time	L.Toe.Tip			R.Toe.Tip			L.Ankle.Lat			R.Ankle.Lat			L.Ankle.Med			R.Ankle.Med			L.Heel			R.Heel			L.Knee.Lat			R.Knee.Lat			L.Knee.Med			R.Knee.Med			L.Thigh.Upper			R.Thigh.Upper			L.ASIS			R.ASIS			V.Sacral			L.Acromium			R.Acromium			C7			L.Elbow			R.Elbow			L.Wrist.Lat			R.Wrist.Lat
		X1	Y1	Z1	X2	Y2	Z2	X3	Y3	Z3	X4	Y4	Z4	X5	Y5	Z5	X6	Y6	Z6	X7	Y7	Z7	X8	Y8	Z8	X9	Y9	Z9	X10	Y10	Z10	X11	Y11	Z11	X12	Y12	Z12	X13	Y13	Z13	X14	Y14	Z14	X15	Y15	Z15	X16	Y16	Z16	X17	Y17	Z17	X18	Y18	Z18	X19	Y19	Z19	X20	Y20	Z20	X21	Y21	Z21	X22	Y22	Z22	X23	Y23	Z23	X24	Y24	Z24

60	0.236	-1.3737528	0.09660747	-0.045429752	-0.69346964	0.039843706	0.093562826	-1.3957552	0.25155033	-0.086605126	-0.84064101	0.053568414	0.12168348	-1.3740003	0.23338538	0.0078792722	-0.83140266	0.091140306	0.030809074	-1.457532	0.29713296	-0.03887576	-0.90790602	0.031276152	0.070974892	-1.0208248	0.4259922	-0.10694198	-0.79370258	0.50546595	0.18237311	-1.0172845	0.41344001	0.020478977	-0.81000594	0.49351722	0.055843071	-1.0044966	0.83407116	-0.12793903	-0.9859783	0.86304369	0.24364866	-0.91606874	0.92050466	-0.073686364	-0.91328803	0.94716472	0.16614015	-1.0843928	0.99118409	0.044084079	-0.8972916	1.3886868	-0.10835624	-0.9460361	1.3894037	0.21629817	-0.98652142	1.4442784	0.04931555	-0.99503443	1.0285782	-0.18777518	-1.0920606	1.0537429	0.28364712	-0.78088708	0.86634308	-0.15760136	-0.97183756	0.80922543	0.3085588
61	0.24	-1.3595881	0.098802387	-0.046606925	-0.69349145	0.039842018	0.093498831	-1.3824734	0.2536563	-0.086097647	-0.84071323	0.053667982	0.12169563	-1.361622	0.23499034	0.0086099357	-0.83122254	0.091131272	0.030753827	-1.4447448	0.29875396	-0.037956261	-0.90797051	0.031279371	0.070884009	-1.0074626	0.4270182	-0.10643879	-0.7907528	0.50503168	0.18245476	-1.0025402	0.41428428	0.021460512	-0.80721484	0.49327468	0.056098262	-0.99820901	0.83510385	-0.12769596	-0.97976718	0.86470414	0.24390726	-0.91043684	0.92182176	-0.073605227	-0.90724125	0.9485815	0.16613429	-1.078299	0.99253724	0.044819077	-0.89170545	1.3898948	-0.10842252	-0.93956486	1.390723	0.21638276	-0.9800893	1.4458019	0.050395212	-0.98998978	1.0299101	-0.18717578	-1.0851194	1.0547513	0.28461501	-0.77779254	0.8653151	-0.15783041	-0.96330969	0.81075804	0.30837305
62	0.244	-1.3450851	0.10078196	-0.047651801	-0.69353077	0.039848824	0.093459466	-1.3688622	0.25547137	-0.085609194	-0.84079876	0.053782577	0.12171898	-1.3484083	0.23660226	0.0090292722	-0.83106915	0.091126027	0.030707605	-1.4317592	0.29999058	-0.037175178	-0.90804077	0.031292238	0.070793119	-0.99418732	0.42823991	-0.10588203	-0.787858	0.50470622	0.18250258	-0.9878483	0.41530221	0.022438064	-0.80457289	0.49301407	0.056441458	-0.9919154	0.83625114	-0.12744529	-0.97346558	0.86642531	0.24420279	-0.90481074	0.92324321	-0.073495302	-0.9012299	0.95004315	0.16615041	-1.0719237	0.99396218	0.045992525	-0.88614663	1.3911802	-0.10847561	-0.93314261	1.3921058	0.21647305	-0.9736914	1.4473876	0.051097749	-0.98500158	1.0313346	-0.18655836	-1.0783272	1.0558234	0.28532317	-0.77476249	0.86435931	-0.15804026	-0.95481102	0.81238184	0.30817483
63	0.248	-1.3303201	0.1025397	-0.048519116	-0.693589	0.039863893	0.093448357	-1.3551049	0.25702699	-0.085109682	-0.84089051	0.053897268	0.12174146	-1.3343775	0.23809722	0.0092107792	-0.83094383	0.09112712	0.030676376	-1.4187118	0.30090592	-0.036430139	-0.90811135	0.031311459	0.070704034	-0.98100379	0.42962851	-0.10525724	-0.78503756	0.50447532	0.18253944	-0.97382761	0.41648323	0.023357846	-0.80204116	0.49276135	0.056770456	-0.98562445	0.83751415	-0.12718797	-0.96760101	0.86812808	0.24441245	-0.89919293	0.92476626	-0.073357683	-0.8952348	0.95154033	0.16620126	-1.0656737	0.99548039	0.047026909	-0.8806324	1.3925446	-0.10852438	-0.92677341	1.3935537	0.21657156	-0.96760087	1.4489308	0.051099277	-0.98005085	1.0328491	-0.18583542	-1.071562	1.0569906	0.28600647	-0.77181729	0.86348736	-0.15823206	-0.94635359	0.81408964	0.30796825
64	0.252	-1.3153731	0.10405863	-0.04914613	-0.69366566	0.039887808	0.093465541	-1.341331	0.25830687	-0.084584808	-0.84096588	0.053986626	0.12175399	-1.3197404	0.23938009	0.0092650278	-0.83084895	0.091135937	0.030668603	-1.4057476	0.30154445	-0.035607467	-0.90817667	0.031332979	0.07061045	-0.96792225	0.43116406	-0.10456981	-0.78237434	0.504294	0.18262577	-0.96046555	0.41780712	0.024230106	-0.79962671	0.49253357	0.057044877	-0.97935476	0.83887842	-0.12693354	-0.96280741	0.86970736	0.2443939	-0.89359873	0.92637808	-0.073201483	-0.88920755	0.95307056	0.16629496	-1.0597759	0.99707713	0.047579576	-0.87516393	1.3939932	-0.10857514	-0.92044875	1.3950675	0.21668005	-0.9619062	1.4504198	0.050576336	-0.97513584	1.0344574	-0.1849946	-1.0647863	1.0582449	0.2867429	-0.76897077	0.86271568	-0.15841278	-0.93794728	0.81586376	0.30775457
65	0.256	-1.3002353	0.10534599	-0.049521946	-0.69375779	0.039920979	0.09350833	-1.3275312	0.2592871	-0.084047508	-0.84098968	0.0540163	0.12175962	-1.3047203	0.24041465	0.0092884206	-0.83078954	0.091155124	0.030688374	-1.3928381	0.301884	-0.034759242	-0.90823518	0.031356075	0.070507579	-0.95497124	0.43284505	-0.10383655	-0.77994467	0.50411688	0.18281633	-0.94733409	0.41926375	0.025107226	-0.79736606	0.49233652	0.057311325	-0.97311565	0.84032551	-0.12669618	-0.95932233	0.87109165	0.24412087	-0.8880536	0.9280666	-0.073032826	-0.8830785	0.95462311	0.16643437	-1.0541326	0.99872196	0.047766361	-0.86973321	1.3955254	-0.1086263	-0.91415671	1.3966434	0.21679771	-0.95641038	1.4519288	0.050044861	-0.97026747	1.0361727	-0.18408635	-1.0580082	1.0595635	0.28751728	-0.76623285	0.86205191	-0.15858964	-0.92959506	0.81769918	0.30753259
